<svg width="52" height="12" viewBox="0 0 52 12" fill="none" xmlns="http://www.w3.org/2000/svg">
<path d="M4.298 11.084C3.57 11.084 2.87 10.9673 2.198 10.734C1.53533 10.5007 1.022 10.1927 0.658 9.81L1.064 9.012C1.41867 9.36667 1.89 9.656 2.478 9.88C3.066 10.0947 3.67267 10.202 4.298 10.202C5.17533 10.202 5.83333 10.0433 6.272 9.726C6.71067 9.39933 6.93 8.97933 6.93 8.466C6.93 8.074 6.80867 7.76133 6.566 7.528C6.33267 7.29467 6.04333 7.11733 5.698 6.996C5.35267 6.86533 4.872 6.72533 4.256 6.576C3.51867 6.38933 2.93067 6.212 2.492 6.044C2.05333 5.86667 1.67533 5.60067 1.358 5.246C1.05 4.89133 0.896 4.41067 0.896 3.804C0.896 3.30933 1.02667 2.86133 1.288 2.46C1.54933 2.04933 1.95067 1.72267 2.492 1.48C3.03333 1.23733 3.70533 1.116 4.508 1.116C5.068 1.116 5.614 1.19533 6.146 1.354C6.68733 1.50333 7.154 1.71333 7.546 1.984L7.196 2.81C6.78533 2.53933 6.34667 2.33867 5.88 2.208C5.41333 2.068 4.956 1.998 4.508 1.998C3.64933 1.998 3.00067 2.166 2.562 2.502C2.13267 2.82867 1.918 3.25333 1.918 3.776C1.918 4.168 2.03467 4.48533 2.268 4.728C2.51067 4.96133 2.80933 5.14333 3.164 5.274C3.528 5.39533 4.01333 5.53067 4.62 5.68C5.33867 5.85733 5.91733 6.03467 6.356 6.212C6.804 6.38 7.182 6.64133 7.49 6.996C7.798 7.34133 7.952 7.81267 7.952 8.41C7.952 8.90467 7.81667 9.35733 7.546 9.768C7.28467 10.1693 6.87867 10.4913 6.328 10.734C5.77733 10.9673 5.10067 11.084 4.298 11.084ZM16.6353 3.636V11H15.6833V9.656C15.4219 10.104 15.0626 10.454 14.6053 10.706C14.1479 10.9487 13.6253 11.07 13.0373 11.07C12.0759 11.07 11.3153 10.804 10.7553 10.272C10.2046 9.73067 9.92928 8.942 9.92928 7.906V3.636H10.9233V7.808C10.9233 8.58267 11.1146 9.17067 11.4973 9.572C11.8799 9.97333 12.4259 10.174 13.1353 10.174C13.9099 10.174 14.5213 9.94067 14.9693 9.474C15.4173 8.998 15.6413 8.34 15.6413 7.5V3.636H16.6353ZM23.2132 3.58C23.9039 3.58 24.5292 3.73867 25.0892 4.056C25.6492 4.364 26.0879 4.80267 26.4052 5.372C26.7225 5.94133 26.8812 6.59 26.8812 7.318C26.8812 8.046 26.7225 8.69467 26.4052 9.264C26.0879 9.83333 25.6492 10.2767 25.0892 10.594C24.5292 10.9113 23.9039 11.07 23.2132 11.07C22.5972 11.07 22.0419 10.9393 21.5472 10.678C21.0619 10.4167 20.6699 10.0387 20.3712 9.544V11H19.4192V0.611999H20.4132V5.036C20.7212 4.56 21.1132 4.20067 21.5892 3.958C22.0745 3.706 22.6159 3.58 23.2132 3.58ZM23.1432 10.188C23.6565 10.188 24.1232 10.0713 24.5432 9.838C24.9632 9.59533 25.2899 9.25467 25.5232 8.816C25.7659 8.37733 25.8872 7.878 25.8872 7.318C25.8872 6.758 25.7659 6.25867 25.5232 5.82C25.2899 5.38133 24.9632 5.04533 24.5432 4.812C24.1232 4.56933 23.6565 4.448 23.1432 4.448C22.6205 4.448 22.1492 4.56933 21.7292 4.812C21.3185 5.04533 20.9919 5.38133 20.7492 5.82C20.5159 6.25867 20.3992 6.758 20.3992 7.318C20.3992 7.878 20.5159 8.37733 20.7492 8.816C20.9919 9.25467 21.3185 9.59533 21.7292 9.838C22.1492 10.0713 22.6205 10.188 23.1432 10.188ZM38.0915 3.58C39.0155 3.58 39.7388 3.846 40.2615 4.378C40.7935 4.91 41.0595 5.694 41.0595 6.73V11H40.0655V6.828C40.0655 6.06267 39.8788 5.47933 39.5055 5.078C39.1415 4.67667 38.6235 4.476 37.9515 4.476C37.1862 4.476 36.5842 4.714 36.1455 5.19C35.7068 5.65667 35.4875 6.30533 35.4875 7.136V11H34.4935V6.828C34.4935 6.06267 34.3068 5.47933 33.9335 5.078C33.5695 4.67667 33.0468 4.476 32.3655 4.476C31.6095 4.476 31.0075 4.714 30.5595 5.19C30.1208 5.65667 29.9015 6.30533 29.9015 7.136V11H28.9075V3.636H29.8595V4.98C30.1208 4.532 30.4848 4.18667 30.9515 3.944C31.4182 3.70133 31.9548 3.58 32.5615 3.58C33.1775 3.58 33.7095 3.71067 34.1575 3.972C34.6148 4.23333 34.9555 4.62067 35.1795 5.134C35.4502 4.64867 35.8375 4.27067 36.3415 4C36.8548 3.72 37.4382 3.58 38.0915 3.58ZM43.7551 3.636H44.7491V11H43.7551V3.636ZM44.2591 2.026C44.0538 2.026 43.8811 1.956 43.7411 1.816C43.6011 1.676 43.5311 1.508 43.5311 1.312C43.5311 1.12533 43.6011 0.962 43.7411 0.821999C43.8811 0.681999 44.0538 0.611999 44.2591 0.611999C44.4645 0.611999 44.6371 0.681999 44.7771 0.821999C44.9171 0.952666 44.9871 1.11133 44.9871 1.298C44.9871 1.50333 44.9171 1.676 44.7771 1.816C44.6371 1.956 44.4645 2.026 44.2591 2.026ZM51.3929 10.552C51.2062 10.72 50.9729 10.8507 50.6929 10.944C50.4222 11.028 50.1376 11.07 49.8389 11.07C49.1482 11.07 48.6162 10.8833 48.2429 10.51C47.8696 10.1367 47.6829 9.60933 47.6829 8.928V4.476H46.3669V3.636H47.6829V2.026H48.6769V3.636H50.9169V4.476H48.6769V8.872C48.6769 9.31067 48.7842 9.64667 48.9989 9.88C49.2229 10.104 49.5402 10.216 49.9509 10.216C50.1562 10.216 50.3522 10.1833 50.5389 10.118C50.7349 10.0527 50.9029 9.95933 51.0429 9.838L51.3929 10.552Z" fill="white"/>
</svg>
